<?xml version="1.0" standalone="no"?><!DOCTYPE svg PUBLIC "-//W3C//DTD SVG 1.1//EN" "http://www.w3.org/Graphics/SVG/1.1/DTD/svg11.dtd"><svg t="1638324200639" class="icon" viewBox="0 0 1024 1024" version="1.1" xmlns="http://www.w3.org/2000/svg" p-id="1483" xmlns:xlink="http://www.w3.org/1999/xlink" width="200" height="200"><defs><style type="text/css"></style></defs><path d="M800 416a286.88 286.88 0 0 1-107.04 224A138.4 138.4 0 0 0 640 746.88V752a48 48 0 0 1-48 48H432a48 48 0 0 1-48-48v-8a138.56 138.56 0 0 0-52.8-104 264.96 264.96 0 0 1-27.2-25.92A232.16 232.16 0 0 1 284.16 592a285.76 285.76 0 0 1-58.24-208.96A288 288 0 0 1 800 416z" fill="#AA9335" p-id="1484"></path><path d="M744 360a286.88 286.88 0 0 1-107.04 224 138.4 138.4 0 0 0-52.96 107.2v5.12a48 48 0 0 1-48 48H384A138.56 138.56 0 0 0 331.2 640a264.96 264.96 0 0 1-27.2-25.92A135.04 135.04 0 0 0 284.16 592a285.76 285.76 0 0 1-58.24-208.96 288 288 0 0 1 460-196.32A285.92 285.92 0 0 1 744 360z" fill="#D1B339" p-id="1485"></path><path d="M384 800m32 0l192 0q32 0 32 32l0 0q0 32-32 32l-192 0q-32 0-32-32l0 0q0-32 32-32Z" fill="#1B45AF" p-id="1486"></path><path d="M384 864m32 0l192 0q32 0 32 32l0 0q0 32-32 32l-192 0q-32 0-32-32l0 0q0-32 32-32Z" fill="#1B45AF" p-id="1487"></path><path d="M560 992h-96l-16-64h128l-16 64z" fill="#0A2872" p-id="1488"></path><path d="M512 280.48v333.28A41.44 41.44 0 0 1 476.48 656a39.84 39.84 0 0 1-43.68-39.84v-12a57.76 57.76 0 0 1-76-20.96 59.68 59.68 0 0 1 11.2-74.88 52.96 52.96 0 0 1 12.96-8.8 81.6 81.6 0 0 1-76.96-91.2A83.68 83.68 0 0 1 388.32 336h5.44a68.16 68.16 0 0 1 20-76.48 68.96 68.96 0 0 1 92.32 6.4 20.64 20.64 0 0 1 5.92 14.56z" fill="#5EA2CC" p-id="1489"></path><path d="M512 280.48v333.28A41.44 41.44 0 0 0 547.52 656 39.84 39.84 0 0 0 592 616v-12a57.76 57.76 0 0 0 76-20.96 59.68 59.68 0 0 0-12-74.72 52.96 52.96 0 0 0-12.96-8.8 81.6 81.6 0 0 0 76.96-91.2A83.68 83.68 0 0 0 635.68 336h-5.44a68.16 68.16 0 0 0-20-76.48 68.96 68.96 0 0 0-92.32 6.4 20.64 20.64 0 0 0-5.92 14.56z" fill="#5EA2CC" p-id="1490"></path><path d="M512 316.32V579.2a32 32 0 0 1-24.64 33.28 29.12 29.12 0 0 1-30.24-32v-9.44a37.44 37.44 0 0 1-52.48-16 52 52 0 0 1 7.2-59.04 36.96 36.96 0 0 1 8.96-7.04c-32-1.92-56.16-34.08-52.48-72a60.96 60.96 0 0 1 58.08-56.96h3.68a58.88 58.88 0 0 1 13.92-60.48 43.36 43.36 0 0 1 64 5.12 17.28 17.28 0 0 1 4 11.68z" fill="#76B4E2" p-id="1491"></path><path d="M512 316.32V579.2a32 32 0 0 0 24.64 33.28 29.12 29.12 0 0 0 30.24-32v-9.44a37.44 37.44 0 0 0 52.48-16 52 52 0 0 0-7.2-59.04 36.96 36.96 0 0 0-8.96-7.04c32-1.92 56.16-34.08 52.48-72a60.96 60.96 0 0 0-58.08-56.96h-3.68a58.88 58.88 0 0 0-13.92-60.48 43.36 43.36 0 0 0-64 5.12 17.28 17.28 0 0 0-4 11.68z" fill="#76B4E2" p-id="1492"></path><path d="M608 880H416a48 48 0 0 1 0-96h192a48 48 0 0 1 0 96z m-192-64a16 16 0 0 0 0 32h192a16 16 0 0 0 0-32z" fill="#0D182D" p-id="1493"></path><path d="M608 944H416a48 48 0 0 1 0-96h192a48 48 0 0 1 0 96z m-192-64a16 16 0 0 0 0 32h192a16 16 0 0 0 0-32z" fill="#0D182D" p-id="1494"></path><path d="M560 1008h-96a16 16 0 0 1-16-12.16l-16-64a16 16 0 0 1 2.88-13.76A16 16 0 0 1 448 912h128a16 16 0 0 1 12.64 6.08 16 16 0 0 1 2.88 13.76l-16 64A16 16 0 0 1 560 1008z m-83.52-32h71.04l8-32h-87.04zM448 526.56a16 16 0 0 1-11.36-4.8 42.08 42.08 0 0 0-48-8 16 16 0 0 1-21.44-7.04 16 16 0 0 1 7.2-21.44 73.6 73.6 0 0 1 85.44 14.08 16 16 0 0 1-11.36 27.2zM512 446.56a16 16 0 0 1-11.68-4.96 37.12 37.12 0 0 0-44.96-7.84 16 16 0 0 1-14.72-28.48 69.28 69.28 0 0 1 83.04 14.24 16 16 0 0 1 0 22.72 16 16 0 0 1-11.68 4.32z" fill="#0D182D" p-id="1495"></path><path d="M512 446.56a16 16 0 0 1-10.88-4.32 16 16 0 0 1-0.8-22.56 67.84 67.84 0 0 1 82.4-14.24 16 16 0 0 1-15.04 28.16 36.48 36.48 0 0 0-44 7.84 16 16 0 0 1-11.68 5.12z" fill="#0D182D" p-id="1496"></path><path d="M512 544a16 16 0 0 1-16-16V280.48a4.48 4.48 0 0 0-1.28-3.2A52.8 52.8 0 0 0 424 272a52.32 52.32 0 0 0-16 58.4 16 16 0 0 1-1.76 14.88 16 16 0 0 1-13.12 6.88h-5.44a67.84 67.84 0 0 0-66.72 51.52 16 16 0 0 1-32-7.04 100.16 100.16 0 0 1 83.52-75.52 83.36 83.36 0 0 1 144-66.4 36.8 36.8 0 0 1 11.52 25.76V528a16 16 0 0 1-16 16zM472.48 672a54.88 54.88 0 0 1-37.12-14.24 56.32 56.32 0 0 1-17.76-32A73.76 73.76 0 0 1 343.2 592a75.2 75.2 0 0 1 3.36-83.84 96 96 0 0 1-51.68-53.92 16 16 0 0 1 29.76-11.52 64 64 0 0 0 56.48 41.28 16 16 0 0 1 6.08 30.4 34.72 34.72 0 0 0-8.96 6.24 43.36 43.36 0 0 0-7.84 54.4 41.6 41.6 0 0 0 54.88 16 16 16 0 0 1 23.52 14.24v12a24.32 24.32 0 0 0 8 18.08 23.36 23.36 0 0 0 18.08 5.92A25.76 25.76 0 0 0 496 613.76V592a16 16 0 0 1 32 0v21.76A57.76 57.76 0 0 1 478.08 672z" fill="#0D182D" p-id="1497"></path><path d="M408.96 376a16 16 0 0 1-11.36-4.8 80 80 0 0 1-18.88-29.76 16 16 0 0 1 30.08-10.88 48 48 0 0 0 11.52 18.24 16 16 0 0 1 0 22.56 16 16 0 0 1-11.36 4.64zM432.8 620a16 16 0 0 1-16-16V592a16 16 0 0 1 32 0v12a16 16 0 0 1-16 16zM576.8 526.56a16 16 0 0 1-11.36-27.2 73.28 73.28 0 0 1 85.44-14.08 16 16 0 0 1 7.2 21.44 16 16 0 0 1-21.44 7.04 42.08 42.08 0 0 0-48 8 16 16 0 0 1-11.84 4.8z" fill="#0D182D" p-id="1498"></path><path d="M551.52 672h-5.6A57.76 57.76 0 0 1 496 613.76V592a16 16 0 0 1 32 0v21.76A25.76 25.76 0 0 0 549.12 640a23.36 23.36 0 0 0 18.08-5.92A24.32 24.32 0 0 0 576 616v-12a16 16 0 0 1 23.52-14.24 41.6 41.6 0 0 0 54.88-16 43.68 43.68 0 0 0-7.68-54.4 38.4 38.4 0 0 0-9.12-6.24 16 16 0 0 1 5.92-30.4A64 64 0 0 0 688 460.64a66.72 66.72 0 0 0 16-50.56A68.16 68.16 0 0 0 635.68 352h-5.44a16 16 0 0 1-13.12-6.88 16 16 0 0 1-1.76-14.88 52.32 52.32 0 0 0-16-58.4 53.12 53.12 0 0 0-70.72 5.44 4.48 4.48 0 0 0-1.28 3.2V528a16 16 0 0 1-32 0V280.48a36.8 36.8 0 0 1 10.56-25.92 83.36 83.36 0 0 1 144 66.4 97.76 97.76 0 0 1 27.2 186.72 75.2 75.2 0 0 1 3.68 84.32 73.76 73.76 0 0 1-74.4 34.24 56.32 56.32 0 0 1-17.76 32 54.88 54.88 0 0 1-37.12 13.76z" fill="#0D182D" p-id="1499"></path><path d="M615.04 376a16 16 0 0 1-11.2-4.64 16 16 0 0 1 0-22.56 48 48 0 0 0 11.52-18.24 16 16 0 0 1 30.08 10.88 80 80 0 0 1-18.88 29.76 16 16 0 0 1-11.52 4.8zM592 620a16 16 0 0 1-16-16V592a16 16 0 0 1 32 0v12a16 16 0 0 1-16 16z" fill="#0D182D" p-id="1500"></path><path d="M592 816H432a64 64 0 0 1-64-64v-5.28a121.76 121.76 0 0 0-46.88-94.4 303.04 303.04 0 0 1-111.04-272A299.36 299.36 0 0 1 272 230.24a16 16 0 1 1 25.28 19.52 272 272 0 0 0 44.48 377.6A154.08 154.08 0 0 1 400 746.72V752a32 32 0 0 0 32 32h160a32 32 0 0 0 32-32v-5.12a154.24 154.24 0 0 1 58.88-119.68A272 272 0 0 0 480.8 145.6a267.2 267.2 0 0 0-139.36 58.88 16 16 0 0 1-20.16-24.96 304 304 0 0 1 393.44 9.92 304 304 0 0 1-11.68 462.72A122.24 122.24 0 0 0 656 746.88V752a64 64 0 0 1-64 64z" fill="#0D182D" p-id="1501"></path><path d="M160 432H128a16 16 0 0 1 0-32h32a16 16 0 0 1 0 32zM896 432h-32a16 16 0 0 1 0-32h32a16 16 0 0 1 0 32zM179.52 624a16 16 0 0 1-8-29.92l27.68-16a16 16 0 0 1 16 27.84l-27.68 16a16 16 0 0 1-8 2.08zM816.8 256a16 16 0 0 1-8-29.92l27.68-16a16 16 0 0 1 16 27.84l-27.68 16a16 16 0 0 1-8 2.08zM288 764.48a16 16 0 0 1-13.92-24l16-27.68a16 16 0 0 1 27.84 16l-16 27.68a16 16 0 0 1-13.92 8zM688 128a16 16 0 0 1-8-2.24 16 16 0 0 1-5.92-21.76l16-27.68a16 16 0 1 1 27.84 16l-16 27.68A16 16 0 0 1 688 128zM844.48 624a16 16 0 0 1-8-2.08l-27.68-16a16 16 0 0 1 16-27.84l27.68 16a16 16 0 0 1-8 29.92zM208 256a16 16 0 0 1-8-2.08l-27.68-16a16 16 0 0 1 16-27.84l27.68 16A16 16 0 0 1 208 256zM736 764.48a16 16 0 0 1-13.92-8l-16-27.68a16 16 0 0 1 27.84-16l16 27.68a16 16 0 0 1-13.92 24zM336 128a16 16 0 0 1-13.92-8l-16-27.68a16 16 0 1 1 27.84-16l16 27.68a16 16 0 0 1-5.92 21.76A16 16 0 0 1 336 128zM512 80a16 16 0 0 1-16-16V32a16 16 0 0 1 32 0v32a16 16 0 0 1-16 16z" fill="#D1B339" p-id="1502"></path></svg>